<?xml version="1.0" encoding="UTF-8" standalone="no" ?>
<!DOCTYPE svg PUBLIC "-//W3C//DTD SVG 1.1//EN" "http://www.w3.org/Graphics/SVG/1.1/DTD/svg11.dtd">
<svg xmlns="http://www.w3.org/2000/svg" xmlns:xlink="http://www.w3.org/1999/xlink" version="1.1" width="1280" height="1024" viewBox="0 0 1280 1024" xml:space="preserve">
<desc>Created with Fabric.js 5.3.0</desc>
<defs>
</defs>
<g transform="matrix(1 0 0 1 640 512)" id="background-logo"  >
<rect style="stroke: none; stroke-width: 0; stroke-dasharray: none; stroke-linecap: butt; stroke-dashoffset: 0; stroke-linejoin: miter; stroke-miterlimit: 4; fill: rgb(255,255,255); fill-rule: nonzero; opacity: 1;"  paint-order="stroke"  x="-640" y="-512" rx="0" ry="0" width="1280" height="1024" />
</g>
<g transform="matrix(1.9211538461538462 0 0 1.9211538461538462 640 407.1253018658116)" id="logo-logo"  >
<g style=""  paint-order="stroke"   >
		<g transform="matrix(1.2266923493329842 0 0 -1.2266923493329842 17.689670228890407 -3.0353029504619258)"  >
<linearGradient id="SVGID_2_466150" gradientUnits="userSpaceOnUse" gradientTransform="matrix(1 0 0 1 95.84800000000003 64.787)"  x1="0" y1="0" x2="0" y2="132">
<stop offset="0%" style="stop-color:rgb(157,102,235);stop-opacity: 1"/>
<stop offset="100%" style="stop-color:rgb(109,29,221);stop-opacity: 1"/>
</linearGradient>
<path style="stroke: none; stroke-width: 1; stroke-dasharray: none; stroke-linecap: butt; stroke-dashoffset: 0; stroke-linejoin: miter; stroke-miterlimit: 4; fill: url(#SVGID_2_466150); fill-rule: nonzero; opacity: 1;"  paint-order="stroke"  transform=" translate(-178.7065, -130.93)" d="M 197.437 185.416 C 208.26100000000002 189.617 230.173 193.852 235.872 180.936 L 235.872 180.936 C 240.31900000000002 170.864 233.69500000000002 155.58100000000002 227.05900000000003 148.166 L 227.05900000000003 148.166 L 227.05900000000003 176.945 L 188.24400000000003 176.945 L 182.72200000000004 193.667 L 144.84200000000004 193.667 L 139.32600000000005 176.945 L 108.97100000000005 176.945 C 101.75700000000005 176.945 95.84800000000004 171.043 95.84800000000004 163.82299999999998 L 95.84800000000004 163.82299999999998 L 95.84800000000004 103.73499999999999 C 95.84800000000004 91.08399999999999 105.65300000000005 83.28299999999999 118.48900000000003 82.16999999999999 L 118.48900000000003 82.16999999999999 C 147.98400000000004 79.60899999999998 193.02200000000005 92.00699999999999 215.21000000000004 111.76999999999998 L 215.21000000000004 111.76999999999998 C 209.71 98.648 195.954 81.081 171.193 64.787 L 171.193 64.787 C 202.936 70.50200000000001 251.827 98.858 261.565 137.166 L 261.565 137.166 C 255.425 128.488 247.489 121.08099999999999 233.414 113.46199999999999 L 233.414 113.46199999999999 C 246.36499999999998 129.706 256.12 156.618 251.149 176.773 L 251.149 176.773 C 248.101 189.127 238.815 197.072 226.216 197.073 L 226.216 197.073 C 217.809 197.073 207.929 193.538 197.437 185.416 M 128.17700000000002 136.896 C 128.17700000000002 155.27599999999998 143.079 170.172 161.454 170.172 L 161.454 170.172 C 179.834 170.172 194.73700000000002 155.276 194.73700000000002 136.896 L 194.73700000000002 136.896 C 194.73700000000002 118.51799999999999 179.83400000000003 103.61899999999999 161.454 103.61899999999999 L 161.454 103.61899999999999 C 143.079 103.61899999999999 128.17700000000002 118.51799999999999 128.17700000000002 136.896 M 107.70300000000002 166.047 L 122.51700000000002 166.047 L 122.51700000000002 156.523 L 107.70300000000003 156.523 z" stroke-linecap="round" />
</g>
		<g transform="matrix(1.2266923493329842 0 0 -1.2266923493329842 -3.470159450928918 -10.354362852757163)"  >
<path style="stroke: none; stroke-width: 1; stroke-dasharray: none; stroke-linecap: butt; stroke-dashoffset: 0; stroke-linejoin: miter; stroke-miterlimit: 4; fill: rgb(134,65,230); fill-rule: nonzero; opacity: 1;"  paint-order="stroke"  transform=" translate(-161.457, -136.8965)" d="M 140.175 136.896 C 140.175 125.14299999999999 149.704 115.618 161.454 115.618 L 161.454 115.618 C 173.209 115.618 182.739 125.143 182.739 136.896 L 182.739 136.896 C 182.739 148.648 173.209 158.17499999999998 161.454 158.17499999999998 L 161.454 158.17499999999998 C 149.704 158.17499999999998 140.175 148.648 140.175 136.896" stroke-linecap="round" />
</g>
		<g transform="matrix(1.2266923493329842 0 0 -1.2266923493329842 -58.4114095981887 38.29672180000114)"  >
<path style="stroke: none; stroke-width: 1; stroke-dasharray: none; stroke-linecap: butt; stroke-dashoffset: 0; stroke-linejoin: miter; stroke-miterlimit: 4; fill: rgb(134,65,230); fill-rule: nonzero; opacity: 1;"  paint-order="stroke"  transform=" translate(-116.66887510696206, -97.23612005289075)" d="M 80.62 67.843 C 98.147 55.65 138.853 56.068 166.331 78.339 L 166.331 78.339 C 143.846 69.401 99.993 63.726 83.051 88.107 L 83.051 88.107 C 75.297 99.276 75.369 115.276 91.626 134.63400000000001 L 91.626 134.63400000000001 C 66.711 118.652 56.752 84.441 80.62 67.843" stroke-linecap="round" />
</g>
</g>
</g>
<g transform="matrix(1.9211538461538462 0 0 1.9211538461538462 640.1988394230768 656.3471115685595)" id="text-logo"  >
<g style=""  paint-order="stroke"   >
		<g transform="matrix(1 0 0 1 0 0)" id="text-logo-path-0"  >
<path style="stroke: none; stroke-width: 0; stroke-dasharray: none; stroke-linecap: butt; stroke-dashoffset: 0; stroke-linejoin: miter; stroke-miterlimit: 4; fill: rgb(111,29,226); fill-rule: nonzero; opacity: 1;"  paint-order="stroke"  transform=" translate(-142.53, 15.409999999999998)" d="M 9.66 0 L 9.66 -12.19 L 21.62 -12.19 L 21.62 -18.63 L 9.66 -18.63 L 9.66 -24.43 L 24.38 -24.43 L 24.38 -30.87 L 2.3 -30.82 L 2.3 0 Z M 46.28 0 L 48.58 -5.98 L 59.8 -5.98 L 62.1 0 L 70.2 0 L 58.24 -30.82 L 50.14 -30.82 L 38.18 0 Z M 51.11 -12.42 L 54.19 -20.38 L 57.27 -12.42 Z M 84 0 L 99.27 0 C 106.35 0 110.35 -4.19 110.35 -10.26 C 110.35 -13.8 108.61 -16.24 105.66 -17.57 C 106.81 -18.77 107.46 -20.38 107.46 -22.4 C 107.46 -27.6 104.33 -30.82 98.26 -30.82 L 84 -30.82 Z M 100.33 -6.44 L 91.36 -6.44 L 91.36 -13.29 L 100.65 -13.29 C 102.86 -13.29 104.33 -11.87 104.33 -9.8 C 104.33 -7.77 102.86 -6.44 100.33 -6.44 Z M 98.49 -18.81 L 91.36 -18.81 L 91.36 -24.38 L 98.49 -24.38 C 100.65 -24.38 101.94 -23.46 101.94 -21.62 C 101.94 -19.73 100.65 -18.81 98.49 -18.81 Z M 144.21 0 L 156.17 -30.82 L 148.07 -30.82 L 140.16 -10.44 L 132.25 -30.82 L 124.15 -30.82 L 136.11 0 Z M 169.97 0 L 191.13 0 L 191.13 -6.44 L 177.33 -6.44 L 177.33 -30.82 L 169.97 -30.82 Z M 220.94 0.51 C 226.83 0.51 232.02 -2.62 234.83 -7.5 C 236.26 -9.94 236.95 -12.56 236.95 -15.41 C 236.95 -21.11 233.91 -26.27 228.99 -29.16 C 226.55 -30.59 223.84 -31.33 220.94 -31.33 C 215.05 -31.33 209.85 -28.24 207.05 -23.37 C 205.62 -20.93 204.93 -18.26 204.93 -15.41 C 204.93 -9.71 207.97 -4.55 212.89 -1.66 C 215.33 -0.23 218.04 0.51 220.94 0.51 Z M 212.52 -15.41 C 212.52 -20.15 216.29 -23.92 220.94 -23.92 C 225.63 -23.92 229.36 -20.15 229.36 -15.41 C 229.36 -10.67 225.58 -6.9 220.94 -6.9 C 216.25 -6.9 212.52 -10.67 212.52 -15.41 Z M 267.58 -9.89 L 273.15 -9.89 C 271.63 -8.05 269.33 -6.9 266.75 -6.9 C 262.06 -6.9 258.34 -10.67 258.34 -15.41 C 258.34 -20.15 262.11 -23.92 266.75 -23.92 C 269.7 -23.92 272.41 -22.36 273.93 -19.92 L 280.42 -23.69 C 277.52 -28.34 272.46 -31.33 266.75 -31.33 C 260.87 -31.33 255.67 -28.24 252.86 -23.37 C 251.44 -20.93 250.75 -18.26 250.75 -15.41 C 250.75 -9.71 253.78 -4.55 258.7 -1.66 C 261.14 -0.23 263.86 0.51 266.75 0.51 C 269.93 0.51 272.92 -0.41 275.4 -1.98 L 275.4 0 L 282.76 0 L 282.76 -16.33 L 267.58 -16.33 Z" stroke-linecap="round" />
</g>
</g>
</g>
<g transform="matrix(1.9211538461538462 0 0 1.9211538461538462 640.1426456730769 742.6187919916365)" id="tagline-40d923de-78c4-462b-8b96-fcf4a95ad295-logo"  >
<g style=""  paint-order="stroke"   >
		<g transform="matrix(1 0 0 1 0 0)" id="tagline-40d923de-78c4-462b-8b96-fcf4a95ad295-logo-path-0"  >
<path style="stroke: none; stroke-width: 0; stroke-dasharray: none; stroke-linecap: butt; stroke-dashoffset: 0; stroke-linejoin: miter; stroke-miterlimit: 4; fill: rgb(143,79,232); fill-rule: nonzero; opacity: 1;"  paint-order="stroke"  transform=" translate(-170.97500000000002, 11.055)" d="M 4.16 -6.86 L 1.65 -5.94 C 3.2 -1.75 6.2 0.33 10.69 0.33 C 15.48 0.33 18.84 -2.41 18.84 -6.11 C 18.84 -8.75 17.19 -10.3 15.18 -11.02 C 14.12 -11.42 12.8 -11.78 11.12 -12.18 C 8.25 -12.84 6.9 -13.27 5.84 -14.29 C 5.28 -14.82 5.02 -15.48 5.02 -16.3 C 5.02 -18.58 7.29 -20.13 10.2 -20.13 C 13.2 -20.13 14.78 -18.91 16.07 -15.68 L 18.51 -16.66 C 16.96 -20.56 14.29 -22.44 10.2 -22.44 C 5.84 -22.44 2.38 -19.87 2.38 -16.3 C 2.38 -13.5 4.16 -11.85 6.24 -11.05 C 7.33 -10.63 8.68 -10.23 10.43 -9.8 C 13.1 -9.14 14.42 -8.81 15.44 -7.89 C 15.94 -7.43 16.2 -6.83 16.2 -6.11 C 16.2 -3.63 14.09 -1.98 10.69 -1.98 C 7.1 -1.98 5.31 -3.63 4.16 -6.86 Z M 33.69 0 L 49.53 0 L 49.53 -2.31 L 36.33 -2.31 L 36.33 -22.11 L 33.69 -22.11 Z M 75.87 0.36 C 80.09 0.36 83.82 -1.88 85.83 -5.38 C 86.86 -7.13 87.35 -9.01 87.35 -11.05 C 87.35 -15.15 85.17 -18.84 81.64 -20.92 C 79.89 -21.95 77.95 -22.47 75.87 -22.47 C 71.64 -22.47 67.91 -20.26 65.9 -16.76 C 64.88 -15.02 64.38 -13.1 64.38 -11.05 C 64.38 -6.96 66.56 -3.27 70.09 -1.19 C 71.84 -0.17 73.79 0.36 75.87 0.36 Z M 75.87 -2.15 C 72.67 -2.15 69.8 -3.83 68.21 -6.57 C 67.42 -7.92 67.02 -9.44 67.02 -11.05 C 67.02 -14.32 68.71 -17.19 71.45 -18.81 C 72.8 -19.6 74.28 -20 75.87 -20 C 79.07 -20 81.94 -18.28 83.52 -15.54 C 84.31 -14.19 84.71 -12.67 84.71 -11.05 C 84.71 -7.79 83.03 -4.92 80.29 -3.33 C 78.94 -2.54 77.45 -2.15 75.87 -2.15 Z M 125.17 -11.71 L 114.28 -11.71 L 114.28 -9.41 L 122.23 -9.41 C 121.64 -7.03 120.15 -4.88 118.11 -3.5 C 116.75 -2.61 115.27 -2.15 113.69 -2.15 C 110.48 -2.15 107.61 -3.83 106.03 -6.57 C 105.24 -7.92 104.84 -9.44 104.84 -11.05 C 104.84 -14.32 106.52 -17.19 109.26 -18.81 C 110.62 -19.6 112.1 -20 113.69 -20 C 116.85 -20 119.66 -18.35 121.24 -15.71 L 123.49 -17 C 121.41 -20.33 117.78 -22.47 113.69 -22.47 C 109.46 -22.47 105.73 -20.26 103.72 -16.76 C 102.7 -15.02 102.2 -13.1 102.2 -11.05 C 102.2 -6.96 104.38 -3.27 107.91 -1.19 C 109.66 -0.17 111.61 0.36 113.69 0.36 C 117.31 0.36 120.48 -1.49 122.53 -4.42 L 122.53 0 L 125.17 0 Z M 142.86 0 L 145.13 -5.45 L 156.22 -5.45 L 158.5 0 L 161.34 0 L 152.1 -22.11 L 149.26 -22.11 L 140.02 0 Z M 146.09 -7.76 L 150.68 -18.71 L 155.26 -7.76 Z M 178.86 0 L 178.86 -18.35 L 191.86 0 L 194.7 0 L 194.7 -22.11 L 192.06 -22.11 L 192.06 -3.73 L 179.03 -22.11 L 176.19 -22.11 L 176.22 -22.08 L 176.22 0 Z M 230.34 0 L 230.34 -9.9 L 243.54 -9.9 L 243.54 0 L 246.18 0 L 246.18 -22.11 L 243.54 -22.11 L 243.54 -12.21 L 230.34 -12.21 L 230.34 -22.11 L 227.7 -22.11 L 227.7 0 Z M 261.03 0 L 276.87 0 L 276.87 -2.31 L 263.67 -2.31 L 263.67 -9.9 L 274.89 -9.9 L 274.89 -12.21 L 263.67 -12.21 L 263.67 -19.8 L 276.87 -19.8 L 276.87 -22.11 L 261.03 -22.11 Z M 294.36 0 L 294.36 -9.21 L 300.73 -9.21 L 306.5 0 L 309.61 0 L 303.8 -9.31 C 307 -9.83 309.38 -12.44 309.38 -15.71 C 309.38 -19.3 306.37 -22.11 302.61 -22.11 L 291.72 -22.11 L 291.72 0 Z M 302.61 -11.48 L 294.36 -11.52 L 294.36 -19.8 L 302.45 -19.8 C 305.12 -19.8 306.9 -18.18 306.9 -15.71 C 306.9 -13.2 305.22 -11.55 302.61 -11.48 Z M 324.46 0 L 340.3 0 L 340.3 -2.31 L 327.1 -2.31 L 327.1 -9.9 L 338.32 -9.9 L 338.32 -12.21 L 327.1 -12.21 L 327.1 -19.8 L 340.3 -19.8 L 340.3 -22.11 L 324.46 -22.11 Z" stroke-linecap="round" />
</g>
</g>
</g>
</svg>